<svg id="Layer_1" data-name="Layer 1" xmlns="http://www.w3.org/2000/svg" viewBox="0 0 418.87 509.19"><defs><style>.cls-1{fill:#c77729;fill-rule:evenodd;}.cls-2{fill:#333;}.cls-3{fill:#bc001f;}.cls-4{fill:#fff;}</style></defs><path class="cls-1" d="M361.25,117.17a167.83,167.83,0,0,1,26.69,7.16l15.85-16.45L415.7,95.54a203.38,203.38,0,0,1,35.16,20.34l-4.71,16.45-6.33,22a166.43,166.43,0,0,1,19.51,19.51l22-6.33,16.44-4.71A205.92,205.92,0,0,1,518.14,198l-12.36,11.91-16.42,15.85a167.76,167.76,0,0,1,7.13,26.69l22.18,5.53,16.62,4.14q1,10,1,20.31t-1,20.33l-16.62,4.12-22.18,5.53a165.71,165.71,0,0,1-7.15,26.69l16.44,15.87,12.36,11.91A206.3,206.3,0,0,1,497.78,402l-16.44-4.73-22-6.31a169.93,169.93,0,0,1-19.48,19.49l6.3,22,4.71,16.44a203.47,203.47,0,0,1-35.16,20.36l-11.91-12.33-15.85-16.45a168.83,168.83,0,0,1-26.69,7.13l-5.53,22.2-4.11,16.6c-6.71.64-13.49,1-20.34,1s-13.63-.35-20.31-1l-4.13-16.6-5.54-22.2a167.61,167.61,0,0,1-26.66-7.13l-15.87,16.45-11.91,12.33a204.31,204.31,0,0,1-35.17-20.36l4.71-16.44,6.33-22A167.81,167.81,0,0,1,203.21,391l-22,6.31L164.76,402a205.15,205.15,0,0,1-20.36-35.16l12.36-11.91,16.42-15.87a167.73,167.73,0,0,1-7.12-26.69l-22.18-5.51-16.6-4.14c-.67-6.67-1-13.48-1-20.33s.35-13.63,1-20.31l16.6-4.14,22.18-5.53a163.51,163.51,0,0,1,7.15-26.66l-16.45-15.88L144.4,198a205.92,205.92,0,0,1,20.36-35.16l16.45,4.71,22,6.33a168,168,0,0,1,19.51-19.51l-6.33-22-4.71-16.43a205,205,0,0,1,35.17-20.36l11.91,12.34L274.6,124.3a171,171,0,0,1,26.69-7.13L306.83,95,311,78.4c6.68-.65,13.46-1,20.31-1s13.63.35,20.31,1L355.72,95Zm-30,22.58A142.64,142.64,0,1,1,188.63,282.39,142.65,142.65,0,0,1,331.27,139.75Z" transform="translate(-122.56 -77.4)"/><path class="cls-1" d="M361,89.89a194.28,194.28,0,0,1,40.79,10.91L394,108.93a182.33,182.33,0,0,0-30.25-8.1Zm92.25,40.69a196.58,196.58,0,0,1,29.83,29.83l-10.84,3.11a186,186,0,0,0-22.1-22.1Zm59.61,81.29a194.47,194.47,0,0,1,10.92,40.79l-10.94-2.72a184.57,184.57,0,0,0-8.1-30.25Zm10.92,100.25a194.47,194.47,0,0,1-10.92,40.79l-8.12-7.82a184.57,184.57,0,0,0,8.1-30.25Zm-40.7,92.25a193.88,193.88,0,0,1-29.83,29.83l-3.11-10.84a186,186,0,0,0,22.1-22.1ZM401.79,464A191.88,191.88,0,0,1,361,474.89L363.72,464a179.89,179.89,0,0,0,30.25-8.1ZM301.54,474.89A192,192,0,0,1,260.75,464l7.82-8.13a182.44,182.44,0,0,0,30.26,8.1Zm-92.25-40.67a196.26,196.26,0,0,1-29.83-29.85l10.84-3.11a185.34,185.34,0,0,0,22.11,22.1Zm-59.61-81.31a194.45,194.45,0,0,1-10.91-40.79l10.94,2.74a182.1,182.1,0,0,0,8.1,30.23ZM138.77,252.69a194.23,194.23,0,0,1,10.91-40.82l8.13,7.85a181.47,181.47,0,0,0-8.1,30.22Zm40.69-92.28a195.22,195.22,0,0,1,29.83-29.83l3.12,10.84a185.34,185.34,0,0,0-22.11,22.1Zm81.29-59.61a194.45,194.45,0,0,1,40.79-10.91l-2.71,10.94a182.44,182.44,0,0,0-30.26,8.1Z" transform="translate(-122.56 -77.4)"/><path class="cls-2" d="M331.27,151.76h-9.54a23.68,23.68,0,0,1,7.15,10.47,8.51,8.51,0,0,0-7.15-3.27,9.57,9.57,0,0,0-9.57,9.55c0,9.57,9.57,19.11,19.11,28.66,9.55-9.55,19.12-19.09,19.12-28.66a9.57,9.57,0,0,0-9.57-9.55,8.38,8.38,0,0,0-7.13,3.27,23.34,23.34,0,0,1,7.13-10.47Z" transform="translate(-122.56 -77.4)"/><path class="cls-2" d="M444.41,347.7l4.78-8.24a24,24,0,0,1-12.66.94,8.53,8.53,0,0,0,6.43-4.56,9.58,9.58,0,0,0-3.51-13.06c-8.28-4.78-21.33-1.27-34.37,2.22,3.49,13.06,7,26.12,15.25,30.88a9.56,9.56,0,0,0,13.06-3.49,8.43,8.43,0,0,0,.75-7.83A23.86,23.86,0,0,1,439.65,356Z" transform="translate(-122.56 -77.4)"/><path class="cls-2" d="M218.14,347.7l4.78,8.28a23.49,23.49,0,0,1,5.48-11.42,8.45,8.45,0,0,0,.75,7.83,9.57,9.57,0,0,0,13.06,3.49c8.27-4.76,11.76-17.82,15.25-30.88-13-3.49-26.09-7-34.36-2.22a9.57,9.57,0,0,0-3.49,13.06,8.44,8.44,0,0,0,6.4,4.56,24,24,0,0,1-12.66-.94Z" transform="translate(-122.56 -77.4)"/><path class="cls-3" d="M389.41,181.69c4.46-2.94,7.72-3.81,11.86-1.42a9.57,9.57,0,0,1,3.49,13.06c-4.78,8.27-17.82,11.76-30.88,15.27-3.48-13-7-26.11-2.21-34.39a9.54,9.54,0,0,1,13.05-3.48c4.14,2.39,5,5.63,4.69,11Z" transform="translate(-122.56 -77.4)"/><path class="cls-3" d="M389.41,383.09c.32,5.33-.55,8.6-4.69,11a9.56,9.56,0,0,1-13.05-3.51c-4.79-8.28-1.27-21.31,2.21-34.37,13.06,3.49,26.1,7,30.88,15.25a9.56,9.56,0,0,1-3.49,13.06c-4.14,2.39-7.4,1.52-11.86-1.42Z" transform="translate(-122.56 -77.4)"/><path class="cls-3" d="M215,282.39c-4.79-2.39-7.15-4.78-7.15-9.54a9.54,9.54,0,0,1,9.54-9.57c9.54,0,19.11,9.57,28.66,19.11-9.55,9.57-19.12,19.11-28.66,19.11a9.54,9.54,0,0,1-9.54-9.54c0-4.79,2.36-7.18,7.15-9.57Z" transform="translate(-122.56 -77.4)"/><path class="cls-2" d="M444.41,217.08l-4.76-8.28a24,24,0,0,1-5.78,11.74,10.36,10.36,0,0,0-2.42-10.79h0a10.36,10.36,0,0,0-14.6,0h0a10.34,10.34,0,0,0,0,14.6l.47.48-.65-.18A10.35,10.35,0,0,0,404,232h0a10.37,10.37,0,0,0,7.3,12.66h0a10.38,10.38,0,0,0,12.66-7.3l.15-.65.17.65a10.38,10.38,0,0,0,12.66,7.3h0a10.37,10.37,0,0,0,7.3-12.66h0a10.34,10.34,0,0,0-8.15-7.47,23.77,23.77,0,0,1,13.06.87Z" transform="translate(-122.56 -77.4)"/><path class="cls-2" d="M331.27,413h9.55a23.81,23.81,0,0,1-7.28-10.86,10.34,10.34,0,0,0,10.54,3.29h0a10.35,10.35,0,0,0,7.33-12.64h0a10.38,10.38,0,0,0-12.66-7.3l-.63.18.45-.48a10.34,10.34,0,0,0,0-14.6h0a10.36,10.36,0,0,0-14.6,0h0a10.36,10.36,0,0,0,0,14.6l.47.48-.64-.18a10.37,10.37,0,0,0-12.66,7.3h0a10.35,10.35,0,0,0,7.32,12.64h0A10.33,10.33,0,0,0,329,402.18,23.8,23.8,0,0,1,321.73,413Z" transform="translate(-122.56 -77.4)"/><path class="cls-2" d="M218.14,217.08l-4.76,8.27a23.67,23.67,0,0,1,13-.87,10.36,10.36,0,0,0-8.15,7.47h0a10.37,10.37,0,0,0,7.3,12.66h0a10.36,10.36,0,0,0,12.66-7.3l.18-.65.17.65a10.35,10.35,0,0,0,12.64,7.3h0a10.37,10.37,0,0,0,7.3-12.66h0a10.36,10.36,0,0,0-12.64-7.3l-.65.18.48-.48a10.36,10.36,0,0,0,0-14.6h0a10.36,10.36,0,0,0-14.6,0h0a10.32,10.32,0,0,0-2.42,10.79,23.68,23.68,0,0,1-5.76-11.74Z" transform="translate(-122.56 -77.4)"/><path class="cls-3" d="M416.5,282.39c11.66,4.91,19.21,9.84,22.7,17.17,3.49-7.33,11.06-12.26,22.7-17.17-11.64-4.91-19.21-9.82-22.7-17.17-3.49,7.35-11,12.26-22.7,17.17Z" transform="translate(-122.56 -77.4)"/><path class="cls-3" d="M288.66,356.2c-10.09,7.63-18.12,11.74-26.22,11.09,4.61,6.68,5.09,15.7,3.52,28.23,10.09-7.62,18.12-11.73,26.21-11.08-4.61-6.68-5.08-15.7-3.51-28.24Z" transform="translate(-122.56 -77.4)"/><path class="cls-3" d="M288.66,208.6c-1.57-12.56-1.1-21.58,3.51-28.26-8.09.65-16.12-3.43-26.21-11.08,1.57,12.56,1.09,21.55-3.52,28.25,8.1-.64,16.13,3.44,26.22,11.09Z" transform="translate(-122.56 -77.4)"/><path class="cls-2" d="M331.27,338.23H307.8a58.28,58.28,0,0,0,17.57-25.74c-4.39,5.36-9.65,8-17.6,8A23.48,23.48,0,0,1,284.3,297c0-23.5,23.47-47,47-70.49,23.5,23.49,47,47,47,70.49a23.49,23.49,0,0,1-23.48,23.48c-7.95,0-13.21-2.67-17.59-8a58.28,58.28,0,0,0,17.57,25.74Z" transform="translate(-122.56 -77.4)"/><path class="cls-4" d="M122.56,585.87V532.63h23.09a28,28,0,0,1,10.23,1.63,13.59,13.59,0,0,1,6.27,4.63,11.9,11.9,0,0,1,2.11,7.05,11.16,11.16,0,0,1-1.28,5.35,11.54,11.54,0,0,1-3.6,4.05,14.18,14.18,0,0,1-5.41,2.24v.52a13.54,13.54,0,0,1,6.24,1.73,12.09,12.09,0,0,1,4.47,4.4,12.57,12.57,0,0,1,1.66,6.56,13.63,13.63,0,0,1-2.27,7.77,15.29,15.29,0,0,1-6.46,5.36,23.47,23.47,0,0,1-10,2ZM137,554.15H143a8.74,8.74,0,0,0,3.35-.6,5.13,5.13,0,0,0,2.28-1.72,4.65,4.65,0,0,0,.81-2.77,4.46,4.46,0,0,0-1.76-3.79,7.34,7.34,0,0,0-4.48-1.31H137Zm0,20.18h6.76a9.06,9.06,0,0,0,5.46-1.37,4.74,4.74,0,0,0,1.82-4,5.62,5.62,0,0,0-.86-3.17,5.32,5.32,0,0,0-2.43-2,9.57,9.57,0,0,0-3.78-.67h-7Z" transform="translate(-122.56 -77.4)"/><path class="cls-4" d="M185.27,585.87h-15.6l17.58-53.24H207l17.58,53.24H209l-11.65-38.58h-.41Zm-2.91-21h29.32v10.82H182.36Z" transform="translate(-122.56 -77.4)"/><path class="cls-4" d="M276.88,552.59H262.22a9.88,9.88,0,0,0-.82-3.3,7.81,7.81,0,0,0-1.82-2.56,7.93,7.93,0,0,0-2.79-1.66,11,11,0,0,0-3.72-.59,10.39,10.39,0,0,0-6.15,1.77,10.76,10.76,0,0,0-3.79,5.07,21.78,21.78,0,0,0-1.29,7.93,22.23,22.23,0,0,0,1.31,8.17,10.28,10.28,0,0,0,3.81,4.94,10.68,10.68,0,0,0,6,1.66,11.63,11.63,0,0,0,3.58-.51,8.29,8.29,0,0,0,2.76-1.47,7.73,7.73,0,0,0,1.91-2.33,9.07,9.07,0,0,0,1-3.08l14.66.11a19.69,19.69,0,0,1-1.89,6.87,22.22,22.22,0,0,1-12.07,11.19,29.5,29.5,0,0,1-23.41-1.35,22.64,22.64,0,0,1-9.17-9.25q-3.37-6.12-3.37-15t3.43-15a23,23,0,0,1,9.26-9.23,26.94,26.94,0,0,1,13-3.13,29.87,29.87,0,0,1,9.29,1.38,22.46,22.46,0,0,1,7.43,4,20,20,0,0,1,5.15,6.49A23.51,23.51,0,0,1,276.88,552.59Z" transform="translate(-122.56 -77.4)"/><path class="cls-4" d="M333.14,552.59H318.48a10.13,10.13,0,0,0-.82-3.3,7.81,7.81,0,0,0-1.82-2.56,7.93,7.93,0,0,0-2.79-1.66,11,11,0,0,0-3.72-.59,10.39,10.39,0,0,0-6.15,1.77,10.76,10.76,0,0,0-3.79,5.07,21.78,21.78,0,0,0-1.29,7.93,22.23,22.23,0,0,0,1.31,8.17,10.28,10.28,0,0,0,3.81,4.94,10.65,10.65,0,0,0,6,1.66,11.63,11.63,0,0,0,3.58-.51,8.29,8.29,0,0,0,2.76-1.47,7.73,7.73,0,0,0,1.91-2.33,9.3,9.3,0,0,0,1-3.08l14.66.11a19.69,19.69,0,0,1-1.89,6.87,22.32,22.32,0,0,1-12.07,11.19,29.5,29.5,0,0,1-23.41-1.35,22.72,22.72,0,0,1-9.18-9.25q-3.36-6.12-3.36-15t3.43-15a23,23,0,0,1,9.26-9.23,26.94,26.94,0,0,1,13-3.13,29.77,29.77,0,0,1,9.28,1.38,22.41,22.41,0,0,1,7.44,4,20,20,0,0,1,5.15,6.49A23.51,23.51,0,0,1,333.14,552.59Z" transform="translate(-122.56 -77.4)"/><path class="cls-4" d="M351.86,585.87h-15.6l17.58-53.24H373.6l17.57,53.24h-15.6l-11.65-38.58h-.41Zm-2.91-21h29.33v10.82H349Z" transform="translate(-122.56 -77.4)"/><path class="cls-4" d="M396.27,585.87V532.63h23a23.6,23.6,0,0,1,10.37,2.15,16.19,16.19,0,0,1,6.92,6.22,18.38,18.38,0,0,1,2.47,9.72,17.45,17.45,0,0,1-2.54,9.65,15.71,15.71,0,0,1-7.1,5.92,26.2,26.2,0,0,1-10.64,2H405V557.06h10.82a13.28,13.28,0,0,0,4.35-.63,5.53,5.53,0,0,0,2.78-2,6.32,6.32,0,0,0,1-3.67,6.54,6.54,0,0,0-1-3.73,5.68,5.68,0,0,0-2.78-2.13,12.22,12.22,0,0,0-4.35-.69h-5.1v41.7Zm31.19-24.44,13.31,24.44h-15.7l-13-24.44Z" transform="translate(-122.56 -77.4)"/><path class="cls-4" d="M459,585.87h-15.6L461,532.63h19.76l17.57,53.24h-15.6L471,547.29h-.41Zm-2.91-21h29.32v10.82H456.06Z" transform="translate(-122.56 -77.4)"/><path class="cls-4" d="M495.16,544.27V532.63h46.28v11.64h-16v41.6H511.17v-41.6Z" transform="translate(-122.56 -77.4)"/></svg>